<?xml version="1.0" encoding="UTF-8" standalone="no"?>
<svg
   xmlns:dc="http://purl.org/dc/elements/1.1/"
   xmlns:cc="http://creativecommons.org/ns#"
   xmlns:rdf="http://www.w3.org/1999/02/22-rdf-syntax-ns#"
   xmlns:svg="http://www.w3.org/2000/svg"
   xmlns="http://www.w3.org/2000/svg"
   xmlns:sodipodi="http://sodipodi.sourceforge.net/DTD/sodipodi-0.dtd"
   xmlns:inkscape="http://www.inkscape.org/namespaces/inkscape"
   enable-background="new 0 0 512 512"
   id="Layer_1"
   version="1.1"
   viewBox="0 0 128 128"
   xml:space="preserve"
   sodipodi:docname="airbnb.svg"
   width="128"
   height="128"
   inkscape:version="0.92.3 (2405546, 2018-03-11)"><metadata
     id="metadata22"><rdf:RDF><cc:Work
         rdf:about=""><dc:format>image/svg+xml</dc:format><dc:type
           rdf:resource="http://purl.org/dc/dcmitype/StillImage" /><dc:title></dc:title></cc:Work></rdf:RDF></metadata><defs
     id="defs20" /><sodipodi:namedview
     pagecolor="#ffffff"
     bordercolor="#666666"
     borderopacity="1"
     objecttolerance="10"
     gridtolerance="10"
     guidetolerance="10"
     inkscape:pageopacity="0"
     inkscape:pageshadow="2"
     inkscape:window-width="3000"
     inkscape:window-height="1875"
     id="namedview18"
     showgrid="false"
     fit-margin-top="0"
     fit-margin-left="0"
     fit-margin-right="0"
     fit-margin-bottom="0"
     inkscape:zoom="0.3828125"
     inkscape:cx="-1388.3514"
     inkscape:cy="1092.8445"
     inkscape:window-x="-13"
     inkscape:window-y="-13"
     inkscape:window-maximized="1"
     inkscape:current-layer="Layer_1" /><g
     id="g28"
     transform="scale(0.25)"><circle
       r="256"
       id="circle10"
       cy="256"
       cx="256"
       style="fill:#fd5c63" /><g
       id="Layer_2"><g
         id="g14"><path
           id="path12"
           d="m 361.2,297.9 c -1.9,-4.3 -3.9,-8.4 -5.6,-12.3 l -0.2,-0.2 c -16.7,-36 -34.5,-72.6 -53.3,-108.6 l -0.7,-1.4 c -1.9,-3.6 -3.9,-7.4 -5.8,-11.3 -2.4,-4.3 -4.8,-8.9 -8.7,-13.2 -7.7,-9.6 -18.8,-14.9 -30.6,-14.9 -12.1,0 -22.9,5.3 -30.9,14.4 -3.6,4.3 -6.3,8.9 -8.7,13.2 -1.9,3.8 -3.9,7.7 -5.8,11.3 l -0.7,1.4 c -18.6,36 -36.7,72.6 -53.3,108.6 l -0.2,0.5 c -1.7,3.8 -3.6,7.9 -5.6,12.3 -1.2,2.6 -2.4,5.5 -3.6,8.6 -3.1,8.9 -4.1,17.3 -2.9,25.9 2.7,18 14.7,33.2 31.4,39.9 6.3,2.6 12.8,3.8 19.5,3.8 1.9,0 4.3,-0.2 6.3,-0.5 8,-1 16.2,-3.6 24.1,-8.2 9.9,-5.5 19.3,-13.5 29.9,-25 10.6,11.5 20.3,19.5 29.9,25 8,4.6 16.2,7.2 24.1,8.2 1.9,0.2 4.3,0.5 6.3,0.5 6.8,0 13.5,-1.2 19.5,-3.8 16.9,-6.7 28.7,-22.1 31.4,-39.9 1.9,-8.4 1,-16.8 -2.2,-25.7 -1.2,-2.8 -2.4,-5.9 -3.6,-8.6 z M 256,319.1 c -13,-16.3 -21.5,-31.7 -24.4,-44.7 -1.2,-5.5 -1.4,-10.3 -0.7,-14.7 0.5,-3.8 1.9,-7.2 3.9,-10.1 4.6,-6.5 12.3,-10.6 21.2,-10.6 8.9,0 16.9,3.8 21.2,10.6 1.9,2.9 3.4,6.3 3.9,10.1 0.7,4.3 0.5,9.4 -0.7,14.7 -2.9,12.7 -11.4,28.1 -24.4,44.7 z m 96.3,11.3 c -1.7,12.5 -10.1,23.3 -22,28.1 -5.8,2.4 -12.1,3.1 -18.3,2.4 -6,-0.7 -12.1,-2.6 -18.3,-6.2 -8.7,-4.8 -17.4,-12.3 -27.5,-23.3 15.9,-19.5 25.6,-37.2 29.2,-53.1 1.7,-7.4 1.9,-14.2 1.2,-20.4 -1,-6 -3.1,-11.5 -6.5,-16.3 -7.5,-10.8 -20,-17.1 -34,-17.1 -14,0 -26.5,6.5 -34,17.1 -3.4,4.8 -5.6,10.3 -6.5,16.3 -1,6.2 -0.7,13.2 1.2,20.4 3.6,15.9 13.5,33.9 29.2,53.3 -9.9,11.1 -18.8,18.5 -27.5,23.3 -6.3,3.6 -12.3,5.5 -18.3,6.2 -6.5,0.7 -12.8,-0.2 -18.3,-2.4 -11.8,-4.8 -20.3,-15.6 -22,-28.1 -0.7,-6 -0.2,-12 2.2,-18.7 0.7,-2.4 1.9,-4.8 3.1,-7.7 1.7,-3.8 3.6,-7.9 5.6,-12 l 0.2,-0.5 c 16.7,-35.8 34.5,-72.3 53.1,-107.9 l 0.7,-1.4 c 1.9,-3.6 3.9,-7.4 5.8,-11 1.9,-3.8 4.1,-7.4 6.8,-10.6 5.1,-5.8 11.8,-8.9 19.3,-8.9 7.5,0 14.2,3.1 19.3,8.9 2.7,3.1 4.8,6.7 6.8,10.6 1.9,3.6 3.9,7.4 5.8,11 l 0.7,1.4 c 18.3,35.8 36.2,72.3 52.9,108.1 v 0.2 c 1.9,3.8 3.6,8.2 5.6,12 1.2,2.9 2.4,5.3 3.1,7.7 1.6,6.3 2.4,12.3 1.4,18.6 z"
           inkscape:connector-curvature="0"
           style="fill:#ffffff" /></g></g></g></svg>