<?xml version="1.0" encoding="UTF-8" standalone="no"?>
<svg
   xmlns:dc="http://purl.org/dc/elements/1.1/"
   xmlns:cc="http://creativecommons.org/ns#"
   xmlns:rdf="http://www.w3.org/1999/02/22-rdf-syntax-ns#"
   xmlns:svg="http://www.w3.org/2000/svg"
   xmlns="http://www.w3.org/2000/svg"
   xmlns:sodipodi="http://sodipodi.sourceforge.net/DTD/sodipodi-0.dtd"
   xmlns:inkscape="http://www.inkscape.org/namespaces/inkscape"
   height="128"
   style="clip-rule:evenodd;fill-rule:evenodd;image-rendering:optimizeQuality;shape-rendering:geometricPrecision;text-rendering:geometricPrecision"
   viewBox="0 0 128 128"
   width="128"
   xml:space="preserve"
   version="1.1"
   id="svg68"
   sodipodi:docname="spotify.svg"
   inkscape:version="0.92.3 (2405546, 2018-03-11)"><metadata
     id="metadata72"><rdf:RDF><cc:Work
         rdf:about=""><dc:format>image/svg+xml</dc:format><dc:type
           rdf:resource="http://purl.org/dc/dcmitype/StillImage" /><dc:title></dc:title></cc:Work></rdf:RDF></metadata><sodipodi:namedview
     pagecolor="#ffffff"
     bordercolor="#666666"
     borderopacity="1"
     objecttolerance="10"
     gridtolerance="10"
     guidetolerance="10"
     inkscape:pageopacity="0"
     inkscape:pageshadow="2"
     inkscape:window-width="3000"
     inkscape:window-height="1875"
     id="namedview70"
     showgrid="false"
     inkscape:zoom="0.32593203"
     inkscape:cx="1511.8393"
     inkscape:cy="1237.6603"
     inkscape:window-x="-13"
     inkscape:window-y="-13"
     inkscape:window-maximized="1"
     inkscape:current-layer="svg68"
     fit-margin-top="0"
     fit-margin-left="0"
     fit-margin-right="0"
     fit-margin-bottom="0" /><defs
     id="defs55"><style
       type="text/css"
       id="style53">
   <![CDATA[
    .fil2 {fill:none}
    .fil0 {fill:#1DD069}
    .fil1 {fill:#FFFFFE}
   ]]>
  </style></defs><g
     id="Layer_x0020_1"
     transform="matrix(0.08510627,0,0,0.08510627,-23.149076,-23.148735)"><path
       class="fil0"
       d="m 1775.94,1024 c 0,-207.698 -84.1489,-395.697 -220.195,-531.745 -136.086,-136.086 -324.089,-220.257 -531.743,-220.257 -207.654,0 -395.658,84.1713 -531.743,220.257 C 356.173,628.342 272.002,816.341 272.002,1024 c 0,207.654 84.1713,395.658 220.257,531.743 136.086,136.086 324.089,220.257 531.743,220.257 207.657,0 395.658,-84.1713 531.745,-220.257 136.086,-136.086 220.257,-324.089 220.257,-531.743 h -0.063 z"
       id="path57"
       inkscape:connector-curvature="0"
       style="fill:#1dd069" /><path
       class="fil1"
       d="m 1533.68,805.973 c -25.3323,-14.7803 -51.4512,-28.1599 -78.2658,-40.2827 -26.3575,-11.9162 -53.602,-22.6441 -81.626,-32.3173 -67.8851,-23.4378 -136.789,-40.3677 -206.509,-51.9343 -69.5729,-11.5429 -140.124,-17.7685 -211.412,-19.8083 -28.9217,-0.82795 -57.8304,-0.81851 -86.7095,0.0567 -28.9063,0.87402 -57.8197,2.61969 -86.7261,5.25827 -27.7288,2.52992 -54.8882,5.66575 -81.2528,9.6378 -26.8288,4.04174 -53.7024,9.04135 -80.628,15.2658 -10.7634,2.4874 -21.548,5.09646 -32.3091,7.95945 -11.1343,2.96103 -21.978,6.10276 -32.3292,9.51497 -17.3906,5.73189 -31.6701,16.9169 -41.5406,31.1646 -9.9567,14.3717 -15.3567,31.8945 -14.8441,50.0634 0.52205,18.4819 6.84213,35.602 17.426,49.3807 10.6406,13.8484 25.5815,24.3614 43.2733,29.5382 8.06103,2.35748 16.0843,3.39922 24.1134,3.31063 8.03623,-0.0886 15.874,-1.25433 23.589,-3.31536 l 7.78465,-2.08583 c 18.5646,-4.97953 37.1469,-9.96497 55.9122,-14.0173 28.8307,-6.22678 57.8587,-10.9595 87.0414,-14.5146 29.6055,-3.60709 59.067,-6.00591 88.4221,-7.52363 26.0894,-1.35 51.9319,-1.93465 77.5359,-1.79291 25.4752,0.14173 51.3095,1.01929 77.47675,2.59134 24.7832,1.48701 49.669,3.68504 74.6457,6.61182 24.3744,2.85591 48.8104,6.43465 73.2875,10.7504 35.4981,6.26221 70.2804,13.8236 104.126,23.0575 34.0229,9.28229 67.663,20.3681 100.823,33.6626 16.7492,6.71575 32.9671,14.0043 48.7607,21.7547 15.7926,7.75158 31.5804,16.1752 47.3681,25.1103 13.7728,7.79292 28.2744,11.3882 42.3626,11.4461 15.1937,0.0626 29.811,-3.99095 42.4595,-11.3362 12.6874,-7.36536 23.4484,-18.0425 30.8906,-31.1977 6.893,-12.1843 10.9287,-26.4662 10.9937,-42.1689 l -0.1251,-2.06221 c -0.085,-0.65551 -0.2729,-2.45079 -0.463,-4.27677 -0.4028,-3.83386 -0.8056,-7.6689 -1.7646,-11.928 -2.8016,-12.4665 -7.9228,-23.2606 -15.1158,-32.5784 -7.1185,-9.22324 -16.0843,-16.8154 -26.6717,-22.9949 z"
       id="path59"
       inkscape:connector-curvature="0"
       style="fill:#fffffe" /><path
       class="fil1"
       d="m 1246.56,967.977 c -63.476,-20.3445 -127.741,-34.826 -192.77,-43.5839 -64.9973,-8.75434 -130.781,-11.7969 -197.335,-9.27048 -31.3264,1.18819 -62.1626,3.53977 -92.4213,7.24253 -30.3083,3.70866 -60.7914,8.8689 -91.4705,15.6839 -12.5965,2.79685 -24.9803,5.78504 -37.1079,8.96694 -11.9492,3.13583 -23.9799,6.54567 -36.0709,10.2378 -14.9244,4.55552 -27.137,13.513 -35.7945,25.1788 -8.76261,11.8063 -13.8496,26.37641 -14.3646,41.91261 -0.49843,14.9847 3.81733,29.4957 11.7638,41.6351 7.92284,12.1028 19.4728,21.9319 33.476,27.6036 8.54174,3.4606 17.2878,5.1083 26.152,5.2405 8.52402,0.1276 16.9477,-1.1822 25.2366,-3.6413 39.8481,-11.8264 80.1686,-20.3291 120.502,-25.9961 43.389,-6.0969 86.6658,-8.9327 129.294,-9.1146 33.2398,0.143 65.5182,1.65 97.2497,4.5875 31.5201,2.9173 62.6386,7.2909 93.7642,13.1823 40.1469,7.5992 79.6052,17.4402 118.191,30.0436 38.3422,12.5256 75.8339,27.8198 112.293,46.4032 11.687,5.9552 23.1614,12.5209 34.6299,19.0807 l 12.5339,7.0666 c 17.7225,9.9957 37.3158,12.3591 55.0819,8.0008 18.0319,-4.4233 34.1244,-15.6461 44.5264,-32.7378 9.6591,-15.8788 12.9484,-36.4465 8.2429,-55.6642 -4.2342,-17.2937 -14.7662,-33.5587 -32.7154,-44.5229 l -0.4464,-0.2729 c -3.0378,-1.8578 -6.1028,-3.7334 -8.2347,-4.9972 -28.9795,-17.2358 -58.9477,-32.6481 -89.8123,-46.3725 -30.7559,-13.676 -62.2477,-25.5921 -94.3938,-35.8925 z"
       id="path61"
       inkscape:connector-curvature="0"
       style="fill:#fffffe" /><path
       class="fil1"
       d="m 1054.66,1164.3 c -47.7367,-7.3453 -96.365,-10.911 -145.741,-11.4295 h -1.00039 c -10.9973,0.6165 -20.6492,1.0913 -30.3,1.5638 -23.2441,1.1374 -46.4906,2.2772 -68.2288,4.1161 -29.2524,2.4744 -58.7245,6.2067 -88.3607,10.9772 -29.2973,4.7162 -58.3737,10.4209 -87.2564,16.904 -2.2689,0.5091 -4.64292,1.0666 -7.44449,1.8378 h -0.0626 c -2.79449,0.7701 -5.56654,1.6559 -8.26772,2.7414 -13.6902,5.5027 -24.2658,15.2965 -30.7642,27.4784 -6.43347,12.0602 -8.79095,26.361 -6.11811,41.0103 2.6126,14.3091 10.2036,26.7189 20.85,35.4685 10.5461,8.6669 24.0744,13.7728 38.7107,13.6134 4.46811,-0.049 8.84056,-0.4973 13.1221,-1.1622 4.02048,-0.6249 7.90985,-1.4327 11.7165,-2.2725 34.4256,-7.6216 69.1512,-13.8945 104.209,-18.6236 34.9193,-4.7102 70.0052,-7.8567 105.26,-9.2421 27.124,-1.0654 54.2693,-0.8811 81.4194,0.6012 26.7874,1.4634 53.75321,4.2496 80.89381,8.4047 43.8213,6.7122 86.217,17.0374 127.065,31.2945 40.8591,14.2618 80.3859,32.5181 118.473,55.0937 l 0.011,-0.019 1.8957,1.1327 c 3.8398,2.3031 7.6972,4.6193 11.928,6.4842 14.1697,6.2575 29.5394,6.7524 43.3181,2.4059 13.8449,-4.3677 26.1225,-13.6571 34.0134,-26.9327 8.0232,-13.4917 10.402,-28.8544 7.65,-43.2319 -2.7472,-14.3504 -10.6524,-27.7075 -23.1992,-37.2366 -4.363,-3.3129 -8.2205,-5.6043 -12.0579,-7.8815 l -1.1421,-0.6779 -0.011,0.019 c -23.4248,-13.95 -47.5099,-26.5807 -72.2327,-37.917 -24.7158,-11.3327 -50.0056,-21.3414 -75.8445,-30.0544 -46.9595,-15.8374 -94.4847,-27.078 -142.504,-34.4658 z"
       id="path63"
       inkscape:connector-curvature="0"
       style="fill:#fffffe" /></g><rect
     class="fil2"
     height="2048"
     width="2048"
     id="rect66"
     x="1.3474601e-006"
     y="-1920"
     style="fill:none" /></svg>