<?xml version="1.0" encoding="UTF-8" standalone="no"?>
<!-- Generator: Adobe Illustrator 20.0.0, SVG Export Plug-In . SVG Version: 6.00 Build 0)  -->

<svg
   xmlns:dc="http://purl.org/dc/elements/1.1/"
   xmlns:cc="http://creativecommons.org/ns#"
   xmlns:rdf="http://www.w3.org/1999/02/22-rdf-syntax-ns#"
   xmlns:svg="http://www.w3.org/2000/svg"
   xmlns="http://www.w3.org/2000/svg"
   xmlns:sodipodi="http://sodipodi.sourceforge.net/DTD/sodipodi-0.dtd"
   xmlns:inkscape="http://www.inkscape.org/namespaces/inkscape"
   version="1.1"
   x="0px"
   y="0px"
   viewBox="0 0 128 128"
   xml:space="preserve"
   id="svg862"
   sodipodi:docname="twitter.svg"
   width="128"
   height="128"
   inkscape:version="0.92.3 (2405546, 2018-03-11)"><metadata
   id="metadata868"><rdf:RDF><cc:Work
       rdf:about=""><dc:format>image/svg+xml</dc:format><dc:type
         rdf:resource="http://purl.org/dc/dcmitype/StillImage" /><dc:title></dc:title></cc:Work></rdf:RDF></metadata><defs
   id="defs866" /><sodipodi:namedview
   pagecolor="#ffffff"
   bordercolor="#666666"
   borderopacity="1"
   objecttolerance="10"
   gridtolerance="10"
   guidetolerance="10"
   inkscape:pageopacity="0"
   inkscape:pageshadow="2"
   inkscape:window-width="3000"
   inkscape:window-height="1875"
   id="namedview864"
   showgrid="false"
   fit-margin-top="0"
   fit-margin-left="0"
   fit-margin-right="0"
   fit-margin-bottom="0"
   inkscape:zoom="0.59"
   inkscape:cx="1011.8644"
   inkscape:cy="1352.5424"
   inkscape:window-x="-13"
   inkscape:window-y="-13"
   inkscape:window-maximized="1"
   inkscape:current-layer="svg862" />
<style
   type="text/css"
   id="style854">
	.st0{fill:#1DA1F2;}
	.st1{fill:#FFFFFF;}
</style>

<g
   id="g1417"
   transform="scale(0.32)"><g
     id="Dark_Blue">
	<circle
   id="circle856"
   r="200"
   cy="200"
   cx="200"
   class="st0"
   style="fill:#1da1f2" />
</g><g
     id="Logo__x2014__FIXED">
	<path
   id="path859"
   d="m 163.4,305.5 c 88.7,0 137.2,-73.5 137.2,-137.2 0,-2.1 0,-4.2 -0.1,-6.2 9.4,-6.8 17.6,-15.3 24.1,-25 -8.6,3.8 -17.9,6.4 -27.7,7.6 10,-6 17.6,-15.4 21.2,-26.7 -9.3,5.5 -19.6,9.5 -30.6,11.7 -8.8,-9.4 -21.3,-15.2 -35.2,-15.2 -26.6,0 -48.2,21.6 -48.2,48.2 0,3.8 0.4,7.5 1.3,11 -40.1,-2 -75.6,-21.2 -99.4,-50.4 -4.1,7.1 -6.5,15.4 -6.5,24.2 0,16.7 8.5,31.5 21.5,40.1 -7.9,-0.2 -15.3,-2.4 -21.8,-6 0,0.2 0,0.4 0,0.6 0,23.4 16.6,42.8 38.7,47.3 -4,1.1 -8.3,1.7 -12.7,1.7 -3.1,0 -6.1,-0.3 -9.1,-0.9 6.1,19.2 23.9,33.1 45,33.5 -16.5,12.9 -37.3,20.6 -59.9,20.6 -3.9,0 -7.7,-0.2 -11.5,-0.7 21.1,13.8 46.5,21.8 73.7,21.8"
   class="st1"
   inkscape:connector-curvature="0"
   style="fill:#ffffff" />
</g></g>
</svg>