<?xml version="1.0" encoding="UTF-8" standalone="no"?>
<!-- Created with Inkscape (http://www.inkscape.org/) -->

<svg
   width="128"
   height="128"
   viewBox="0 0 33.866663 33.866663"
   version="1.1"
   id="svg1010"
   inkscape:version="1.2 (dc2aedaf03, 2022-05-15)"
   sodipodi:docname="blogIcon.svg"
   xmlns:inkscape="http://www.inkscape.org/namespaces/inkscape"
   xmlns:sodipodi="http://sodipodi.sourceforge.net/DTD/sodipodi-0.dtd"
   xmlns:xlink="http://www.w3.org/1999/xlink"
   xmlns="http://www.w3.org/2000/svg"
   xmlns:svg="http://www.w3.org/2000/svg">
  <sodipodi:namedview
     id="namedview1012"
     pagecolor="#505050"
     bordercolor="#ffffff"
     borderopacity="1"
     inkscape:showpageshadow="0"
     inkscape:pageopacity="0"
     inkscape:pagecheckerboard="1"
     inkscape:deskcolor="#505050"
     inkscape:document-units="mm"
     showgrid="false"
     inkscape:zoom="3.659624"
     inkscape:cx="154.38744"
     inkscape:cy="95.364988"
     inkscape:window-width="2560"
     inkscape:window-height="1377"
     inkscape:window-x="-8"
     inkscape:window-y="-8"
     inkscape:window-maximized="1"
     inkscape:current-layer="layer1" />
  <defs
     id="defs1007">
    <linearGradient
       id="SVGID_1_"
       gradientUnits="userSpaceOnUse"
       x1="59.8839"
       y1="32.180302"
       x2="58.284302"
       y2="96.393898">
		<stop
   offset="0"
   style="stop-color:#4FF0FA"
   id="stop150" />

		<stop
   offset="0.1203"
   style="stop-color:#5AF0F9"
   id="stop152" />

		<stop
   offset="0.3336"
   style="stop-color:#78EFF7"
   id="stop154" />

		<stop
   offset="0.6151"
   style="stop-color:#A9EEF3"
   id="stop156" />

		<stop
   offset="0.916"
   style="stop-color:#E5ECEE"
   id="stop158" />

	</linearGradient>
    <linearGradient
       id="SVGID_00000080912627234863695870000012333406384371029127_"
       gradientUnits="userSpaceOnUse"
       x1="61.867802"
       y1="44.693199"
       x2="69.268799"
       y2="44.693199">
		<stop
   offset="0"
   style="stop-color:#E190B2"
   id="stop163" />

		<stop
   offset="1"
   style="stop-color:#F36876"
   id="stop165" />

	</linearGradient>
    <linearGradient
       id="SVGID_00000153687467530604343800000015022664621280695959_"
       gradientUnits="userSpaceOnUse"
       x1="59.555801"
       y1="60.464199"
       x2="68.794197"
       y2="60.464199">
		<stop
   offset="0"
   style="stop-color:#FC5FC5"
   id="stop170" />

		<stop
   offset="1"
   style="stop-color:#F4479E"
   id="stop172" />

	</linearGradient>
    <clipPath
       id="SVGID_00000011011020548597692950000016877978815659133371_">
			<use
   xlink:href="#SVGID_00000052788397316076205790000004509295725987762327_"
   style="overflow:visible"
   id="use180" />

		</clipPath>
    <linearGradient
       id="SVGID_00000060742650791726826160000008686491671279782334_"
       gradientUnits="userSpaceOnUse"
       x1="20.250799"
       y1="67.600304"
       x2="105.4541"
       y2="67.600304">
				<stop
   offset="0.1316"
   style="stop-color:#7CEEF3"
   id="stop200" />

				<stop
   offset="0.2836"
   style="stop-color:#A3B7BB"
   id="stop202" />

				<stop
   offset="0.4497"
   style="stop-color:#C88285"
   id="stop204" />

				<stop
   offset="0.5935"
   style="stop-color:#E45B5E"
   id="stop206" />

				<stop
   offset="0.7077"
   style="stop-color:#F54446"
   id="stop208" />

				<stop
   offset="0.778"
   style="stop-color:#FB3B3D"
   id="stop210" />

			</linearGradient>
    <linearGradient
       id="SVGID_00000015339069418137621360000002670847897742480054_"
       gradientUnits="userSpaceOnUse"
       x1="22.458"
       y1="67.600197"
       x2="103.196"
       y2="67.600197">
				<stop
   offset="0.1316"
   style="stop-color:#7CEEF3"
   id="stop215" />

				<stop
   offset="0.2836"
   style="stop-color:#A3B7BB"
   id="stop217" />

				<stop
   offset="0.4497"
   style="stop-color:#C88285"
   id="stop219" />

				<stop
   offset="0.5935"
   style="stop-color:#E45B5E"
   id="stop221" />

				<stop
   offset="0.7077"
   style="stop-color:#F54446"
   id="stop223" />

				<stop
   offset="0.778"
   style="stop-color:#FB3B3D"
   id="stop225" />

			</linearGradient>
    <linearGradient
       id="SVGID_00000120530267892931220970000008279791835050958002_"
       gradientUnits="userSpaceOnUse"
       x1="44.420898"
       y1="59.2034"
       x2="103.2002"
       y2="59.2034">
				<stop
   offset="0.1316"
   style="stop-color:#F75AC3"
   id="stop243" />

				<stop
   offset="0.2129"
   style="stop-color:#F756B3"
   id="stop245" />

				<stop
   offset="0.3723"
   style="stop-color:#F94C88"
   id="stop247" />

				<stop
   offset="0.5924"
   style="stop-color:#FB3D45"
   id="stop249" />

				<stop
   offset="0.6163"
   style="stop-color:#FB3B3D"
   id="stop251" />

			</linearGradient>
    <linearGradient
       id="SVGID_00000023987134371729370040000008535650974114864025_"
       gradientUnits="userSpaceOnUse"
       x1="29.787399"
       y1="48.369801"
       x2="87.765198"
       y2="48.369801">
				<stop
   offset="0.1316"
   style="stop-color:#FB60C9"
   id="stop256" />

				<stop
   offset="0.2024"
   style="stop-color:#FB5BB6"
   id="stop258" />

				<stop
   offset="0.3823"
   style="stop-color:#FB508B"
   id="stop260" />

				<stop
   offset="0.5566"
   style="stop-color:#FB4769"
   id="stop262" />

				<stop
   offset="0.7216"
   style="stop-color:#FB4051"
   id="stop264" />

				<stop
   offset="0.8735"
   style="stop-color:#FB3C42"
   id="stop266" />

				<stop
   offset="1"
   style="stop-color:#FB3B3D"
   id="stop268" />

			</linearGradient>
    <path
       id="SVGID_00000052788397316076205790000004509295725987762327_"
       d="M 95.6,54.8 C 94.8,49.7 95.4,44.4 93.4,39.5 89.3,27.5 77,20 64.6,19.8 47.6,19.3 31.1,30.6 25.2,46.5 18.7,62.1 24.1,83 41.3,88.6 c 5.6,1.8 11.6,1.9 17.3,0.4 6.3,-1.7 12,-5.1 17.9,-7.6 1.3,-0.6 2.6,-1.1 4,-1.5 0.7,-0.2 1.4,-0.5 2.1,-0.7 0.4,-0.1 1.8,-0.7 2.1,-0.6 0.1,0 0.2,0.2 0.1,0.3 -1.2,0.4 -2.4,0.8 -3.5,1.2 -2.3,1 -4.5,2.1 -6.8,3.3 -2.1,1.1 -4.2,2.3 -6,3.8 -2.2,1.8 -4.1,4.2 -4.8,7 -0.4,1.6 -0.1,3.1 -0.2,4.7 0,0.1 -0.2,0 -0.1,0 1.5,1.4 2.3,2.7 3.1,4.6 0.7,1.8 1.3,3.7 2,5.5 0.7,1.8 1.4,4 2.8,5.5 0.2,0.2 0.3,0.3 0.6,0.5 1.6,1 3.6,0.6 5.1,-0.3 1.5,-0.9 2.5,-2.4 2.8,-4.2 0.3,-1.8 0.2,-3.5 0.2,-5.3 0.1,-1.9 0.7,-3.9 1.9,-5.4 0,0 0,0 0,0 -0.2,0 -0.4,-0.1 -0.5,-0.7 -1.4,-4.6 2.5,-8.4 6.6,-9.7 0.8,-0.2 1.5,-0.5 2.3,-0.8 4.2,-1.7 7.9,-4.3 10.4,-8.3 7.2,-12.6 -3.1,-15.2 -5.1,-25.5 z m -2.6,15 c -8.9,-5.9 -18.7,1.8 -26.6,6.4 -0.6,0.3 -1.1,0.7 -1.7,1 -12.9,8 -31.1,5.8 -37.3,-9.4 -5.9,-16.6 6.1,-36.4 22,-42.3 8.8,-3.5 19.3,-3.1 27.5,1.9 2.6,1.4 4.9,3.3 6.9,5.5 3.6,4.4 2,3.4 -0.7,0.1 -21.7,-21.6 -55.7,0.5 -53,28.5 0.4,3.5 1.4,7.3 3.6,10.1 1.8,2 5.5,0.1 4.4,-2.5 -4.1,-7.8 -3.3,-17.3 1,-24.8 5.3,-9.6 16.5,-16.6 27.6,-14.7 7.5,1.2 14.4,6.6 16.9,13.8 1.4,4.1 1.6,9 4.9,12.2 0.3,1.3 -4.5,-1.5 -4.7,-2.1 -2.1,-1.9 -1.9,-4.9 -3.3,-7.2 -6,-6.6 -13.3,4.5 -3.3,9.1 0.4,0.5 4.4,0.9 3.5,1.5 -1,0.2 -2,0.1 -2.9,0.5 -6.2,2 -8.6,8.3 -16.1,8.5 -9.5,0.9 -17.8,-9.1 -11.5,-17.6 1.4,-2.2 -1,-4.1 -2.8,-2.1 -2.6,3.7 -3.5,8.7 -2.6,13.1 2.9,11.7 18,17.1 28.2,11.2 5.5,-3.3 12.6,-6 18.6,-2.3 0.7,0.5 2.3,1.7 1.4,1.6 z" />
  </defs>
  <g
     inkscape:label="Layer 1"
     inkscape:groupmode="layer"
     id="layer1">
    <g
       id="g279"
       transform="scale(0.26458333)">
	<circle
   class="st0"
   cx="64"
   cy="64"
   r="64"
   id="circle146"
   style="fill:#2f3f72" />

	
	<linearGradient
   id="linearGradient904"
   gradientUnits="userSpaceOnUse"
   x1="59.8839"
   y1="32.180302"
   x2="58.284302"
   y2="96.393898">
		<stop
   offset="0"
   style="stop-color:#4FF0FA"
   id="stop894" />

		<stop
   offset="0.1203"
   style="stop-color:#5AF0F9"
   id="stop896" />

		<stop
   offset="0.3336"
   style="stop-color:#78EFF7"
   id="stop898" />

		<stop
   offset="0.6151"
   style="stop-color:#A9EEF3"
   id="stop900" />

		<stop
   offset="0.916"
   style="stop-color:#E5ECEE"
   id="stop902" />

	</linearGradient>

	<path
   class="st1"
   d="m 78.9,42.2 c -0.2,0.2 -0.4,0.4 -0.6,0.5 C 77.5,43 76.7,43 76,42.6 75.6,42.4 75.3,42.2 75,41.9 74.7,41.6 74.4,41.3 74.1,41 c -0.7,-0.7 -1.5,-1.3 -2.4,-1.8 -1.1,-0.6 -2.3,-1 -3.6,-1.2 -0.9,-0.2 -1.8,-0.1 -2.7,-0.1 -0.4,0 -0.7,0 -1.1,0.1 -0.9,0.1 -1.7,0.4 -2.6,0.7 -1.4,0.5 -2.7,1.2 -3.8,2.2 -0.6,0.6 -1.1,1.2 -1.6,1.9 -0.4,0.6 -0.6,1.3 -0.7,2.1 -0.1,0.5 -0.1,1 0,1.5 0.2,1.3 0.8,2.4 1.8,3.3 2.8,2.4 6.8,2.2 10.2,2.1 0.5,0 1.1,0.1 1.6,0.2 0.3,0.1 0.6,0.2 0.8,0.4 0.8,0.7 0.8,1.9 0.2,2.7 -0.1,0.1 -0.1,0.2 -0.2,0.2 -0.3,0.3 -0.7,0.5 -1.2,0.6 -0.5,0.1 -0.9,0.2 -1.4,0.2 -1.3,0 -2.7,0 -4,-0.1 -1.6,0 -3.2,-0.3 -4.8,-0.7 -1.5,-0.4 -2.9,-1.1 -4.2,-2 -1.3,-0.9 -2.2,-2.1 -2.9,-3.5 -0.4,-0.8 -0.7,-1.7 -0.8,-2.6 -0.1,-0.6 -0.2,-1.2 -0.1,-1.7 0.1,-1 0.3,-1.9 0.7,-2.9 0.3,-0.7 0.6,-1.3 1.1,-1.9 0.5,-0.6 1,-1.3 1.7,-1.8 0.6,-0.5 1.3,-0.9 2,-1.4 0.2,-0.1 0.3,-0.4 0,-0.4 0,0 -0.1,0 -0.1,0 -0.7,0.3 -1.4,0.7 -2.1,1.1 -2.1,1.4 -4.1,3 -5.8,4.9 -0.6,0.7 -1.1,1.4 -1.7,2.2 -0.3,0.4 -0.6,0.9 -0.9,1.3 -0.5,0.9 -1,1.8 -1.4,2.8 -0.3,0.8 -0.6,1.5 -0.8,2.3 -0.2,0.7 -0.3,1.5 -0.5,2.3 0,0.1 0,0.3 0,0.4 -0.1,0.9 -0.1,1.8 -0.1,2.7 0,1.4 0.3,2.7 0.7,3.9 0.3,0.8 0.6,1.5 1,2.3 0.8,1.6 2,3 3.3,4.2 0.7,0.7 1.6,1.2 2.4,1.7 2.8,1.7 6,2.5 9,3.7 0.4,0.2 0.8,0.4 1,0.8 0.7,1.1 0.2,2.6 -1.1,3.1 C 58.3,77.1 57.6,77 56.8,77 54.6,76.8 52.5,76.3 50.5,75.3 49.7,74.9 49,74.5 48.2,74 47.1,73.3 46,72.5 45.1,71.6 c -0.4,-0.3 -0.7,-0.7 -1,-1.1 -0.6,-0.7 -1.2,-1.4 -1.7,-2.1 -0.5,-0.8 -1,-1.6 -1.4,-2.5 -0.2,-0.5 -0.4,-1 -0.6,-1.5 -0.2,-0.7 -0.4,-1.4 -0.6,-2.1 -0.1,-0.5 -0.2,-0.9 -0.3,-1.4 -0.1,-0.5 -0.1,-1.1 -0.2,-1.6 -0.1,-0.9 -0.2,-1.9 -0.1,-2.8 0,-0.8 0.1,-1.5 0.2,-2.3 0.1,-1 0.3,-1.9 0.6,-2.8 0.3,-1.2 0.7,-2.3 1.2,-3.4 0.7,-1.7 1.6,-3.2 2.6,-4.7 1,-1.5 2.1,-2.8 3.4,-4.1 0.9,-0.8 1.8,-1.6 2.7,-2.3 0.9,-0.6 1.7,-1.2 2.7,-1.6 1.4,-0.7 2.8,-1.3 4.2,-1.7 0.7,-0.2 1.3,-0.4 2,-0.5 0.6,-0.1 1.2,-0.3 1.8,-0.3 0.3,0 0.6,-0.1 0.8,-0.1 1,-0.1 2,-0.2 3,-0.1 0.7,0.1 1.4,0.1 2.1,0.2 0.8,0.1 1.6,0.3 2.4,0.5 1,0.3 2.1,0.6 3,1 1.2,0.5 2.2,1.1 3.3,1.8 0.9,0.6 1.7,1.2 2.5,1.8 0.5,0.4 0.9,0.8 1.1,1.4 0.8,1.1 0.7,2.1 0.1,2.9 z"
   id="path161"
   style="fill:url(#SVGID_1_)" />

	
		<linearGradient
   id="linearGradient911"
   gradientUnits="userSpaceOnUse"
   x1="61.867802"
   y1="44.693199"
   x2="69.268799"
   y2="44.693199">
		<stop
   offset="0"
   style="stop-color:#E190B2"
   id="stop907" />

		<stop
   offset="1"
   style="stop-color:#F36876"
   id="stop909" />

	</linearGradient>

	<circle
   style="fill:url(#SVGID_00000080912627234863695870000012333406384371029127_)"
   cx="65.599998"
   cy="44.700001"
   r="3.7"
   id="circle168" />

	
		<linearGradient
   id="linearGradient918"
   gradientUnits="userSpaceOnUse"
   x1="59.555801"
   y1="60.464199"
   x2="68.794197"
   y2="60.464199">
		<stop
   offset="0"
   style="stop-color:#FC5FC5"
   id="stop914" />

		<stop
   offset="1"
   style="stop-color:#F4479E"
   id="stop916" />

	</linearGradient>

	<ellipse
   style="fill:url(#SVGID_00000153687467530604343800000015022664621280695959_)"
   cx="64.199997"
   cy="60.5"
   rx="4.5999999"
   ry="4.1999998"
   id="ellipse175" />

	<g
   id="g275">
		<defs
   id="defs178">
			<path
   id="path1305"
   d="M 95.6,54.8 C 94.8,49.7 95.4,44.4 93.4,39.5 89.3,27.5 77,20 64.6,19.8 47.6,19.3 31.1,30.6 25.2,46.5 18.7,62.1 24.1,83 41.3,88.6 c 5.6,1.8 11.6,1.9 17.3,0.4 6.3,-1.7 12,-5.1 17.9,-7.6 1.3,-0.6 2.6,-1.1 4,-1.5 0.7,-0.2 1.4,-0.5 2.1,-0.7 0.4,-0.1 1.8,-0.7 2.1,-0.6 0.1,0 0.2,0.2 0.1,0.3 -1.2,0.4 -2.4,0.8 -3.5,1.2 -2.3,1 -4.5,2.1 -6.8,3.3 -2.1,1.1 -4.2,2.3 -6,3.8 -2.2,1.8 -4.1,4.2 -4.8,7 -0.4,1.6 -0.1,3.1 -0.2,4.7 0,0.1 -0.2,0 -0.1,0 1.5,1.4 2.3,2.7 3.1,4.6 0.7,1.8 1.3,3.7 2,5.5 0.7,1.8 1.4,4 2.8,5.5 0.2,0.2 0.3,0.3 0.6,0.5 1.6,1 3.6,0.6 5.1,-0.3 1.5,-0.9 2.5,-2.4 2.8,-4.2 0.3,-1.8 0.2,-3.5 0.2,-5.3 0.1,-1.9 0.7,-3.9 1.9,-5.4 0,0 0,0 0,0 -0.2,0 -0.4,-0.1 -0.5,-0.7 -1.4,-4.6 2.5,-8.4 6.6,-9.7 0.8,-0.2 1.5,-0.5 2.3,-0.8 4.2,-1.7 7.9,-4.3 10.4,-8.3 7.2,-12.6 -3.1,-15.2 -5.1,-25.5 z m -2.6,15 c -8.9,-5.9 -18.7,1.8 -26.6,6.4 -0.6,0.3 -1.1,0.7 -1.7,1 -12.9,8 -31.1,5.8 -37.3,-9.4 -5.9,-16.6 6.1,-36.4 22,-42.3 8.8,-3.5 19.3,-3.1 27.5,1.9 2.6,1.4 4.9,3.3 6.9,5.5 3.6,4.4 2,3.4 -0.7,0.1 -21.7,-21.6 -55.7,0.5 -53,28.5 0.4,3.5 1.4,7.3 3.6,10.1 1.8,2 5.5,0.1 4.4,-2.5 -4.1,-7.8 -3.3,-17.3 1,-24.8 5.3,-9.6 16.5,-16.6 27.6,-14.7 7.5,1.2 14.4,6.6 16.9,13.8 1.4,4.1 1.6,9 4.9,12.2 0.3,1.3 -4.5,-1.5 -4.7,-2.1 -2.1,-1.9 -1.9,-4.9 -3.3,-7.2 -6,-6.6 -13.3,4.5 -3.3,9.1 0.4,0.5 4.4,0.9 3.5,1.5 -1,0.2 -2,0.1 -2.9,0.5 -6.2,2 -8.6,8.3 -16.1,8.5 -9.5,0.9 -17.8,-9.1 -11.5,-17.6 1.4,-2.2 -1,-4.1 -2.8,-2.1 -2.6,3.7 -3.5,8.7 -2.6,13.1 2.9,11.7 18,17.1 28.2,11.2 5.5,-3.3 12.6,-6 18.6,-2.3 0.7,0.5 2.3,1.7 1.4,1.6 z" />

		</defs>

		<clipPath
   id="clipPath925">
			<use
   xlink:href="#SVGID_00000052788397316076205790000004509295725987762327_"
   style="overflow:visible"
   id="use923" />

		</clipPath>

		<g
   clip-path="url(#SVGID_00000011011020548597692950000016877978815659133371_)"
   id="g273">
			
				<linearGradient
   id="SVGID_00000025444910195680771500000011563917313918268089_"
   gradientUnits="userSpaceOnUse"
   x1="27.601801"
   y1="48.369801"
   x2="89.955101"
   y2="48.369801">
				<stop
   offset="0.1316"
   style="stop-color:#FB60C9"
   id="stop183" />

				<stop
   offset="0.2024"
   style="stop-color:#FB5BB6"
   id="stop185" />

				<stop
   offset="0.3823"
   style="stop-color:#FB508B"
   id="stop187" />

				<stop
   offset="0.5566"
   style="stop-color:#FB4769"
   id="stop189" />

				<stop
   offset="0.7216"
   style="stop-color:#FB4051"
   id="stop191" />

				<stop
   offset="0.8735"
   style="stop-color:#FB3C42"
   id="stop193" />

				<stop
   offset="1"
   style="stop-color:#FB3B3D"
   id="stop195" />

			</linearGradient>

			
			
				<linearGradient
   id="linearGradient947"
   gradientUnits="userSpaceOnUse"
   x1="20.250799"
   y1="67.600304"
   x2="105.4541"
   y2="67.600304">
				<stop
   offset="0.1316"
   style="stop-color:#7CEEF3"
   id="stop935" />

				<stop
   offset="0.2836"
   style="stop-color:#A3B7BB"
   id="stop937" />

				<stop
   offset="0.4497"
   style="stop-color:#C88285"
   id="stop939" />

				<stop
   offset="0.5935"
   style="stop-color:#E45B5E"
   id="stop941" />

				<stop
   offset="0.7077"
   style="stop-color:#F54446"
   id="stop943" />

				<stop
   offset="0.778"
   style="stop-color:#FB3B3D"
   id="stop945" />

			</linearGradient>

			<path
   style="fill:url(#SVGID_00000060742650791726826160000008686491671279782334_)"
   d="m 74,117.6 c -1.2,0 -2.3,-0.3 -3.3,-0.9 -0.4,-0.2 -0.7,-0.5 -1,-0.9 -1.6,-1.7 -2.4,-3.9 -3.1,-5.8 l -0.1,-0.4 c -0.3,-0.8 -0.6,-1.6 -0.9,-2.4 -0.4,-1.1 -0.7,-2.1 -1.1,-3.1 -0.6,-1.6 -1.4,-2.7 -2.5,-3.8 v 0 l -1.1,-1.1 0.6,-1.4 c 0,-0.3 0,-0.6 0,-0.9 0,-1.1 -0.1,-2.3 0.2,-3.5 0.3,-1.4 1,-2.7 1.7,-3.9 -1.3,0.5 -2.7,1 -4.1,1.3 -2.8,0.8 -5.7,1.1 -8.6,1.1 -3.4,0 -6.7,-0.5 -9.9,-1.6 C 33.2,87.9 27.2,82.5 23.7,74.9 19.5,65.8 19.3,54.8 23.2,45.3 c 3,-7.9 8.6,-15.1 16,-20.2 7.3,-5.1 16,-7.9 24.5,-7.9 0.3,0 0.7,0 1,0 13.9,0.1 26.6,8.8 30.8,21.1 1.4,3.5 1.6,7 1.8,10.4 0.1,1.8 0.2,3.6 0.5,5.3 0.6,3 2,5.3 3.6,7.7 l 2.3,3.5 -4.2,-0.1 C 97.4,65 95.1,64.4 92.7,63.3 91.5,62.7 90.3,62.1 89.1,61.5 87.9,60.8 86.8,60.2 85.6,59.7 83.7,58.9 82.1,58.4 80.6,58.4 H 79.9 L 79.5,58.1 C 79.4,58.1 79.2,58 79.1,58 79,58 78.8,57.9 78.7,57.9 77.2,57.5 76,57 74.9,56.3 c -3.3,-2.1 -5,-5.1 -4.6,-8.3 0.3,-2.6 2,-4.9 4.3,-5.8 0.6,-0.2 1.4,-0.4 2.1,-0.4 2.3,0 4.7,1.2 5.8,3.1 0.6,1 1,2 1.3,3 l 0.4,-0.3 c 0.8,-0.6 1.4,-1.8 1.5,-3.4 0.4,-4.1 -2.4,-7.9 -2.5,-8.1 l 0.3,-0.3 c -0.3,-0.4 -0.7,-0.9 -1.4,-1.8 -1.8,-2 -4,-3.7 -6.3,-5 h -0.1 -0.1 c -4.1,-2.6 -9.1,-3.9 -14.3,-3.9 -3.8,0 -7.7,0.7 -11.2,2.2 v 0 C 35.9,32.8 23.8,51.2 29.3,67 c 3.3,8 10.4,12.5 19.5,12.5 0,0 0,0 0,0 5,0 10.2,-1.5 14.6,-4.2 0.6,-0.4 1.2,-0.7 1.8,-1 1.1,-0.6 2.2,-1.3 3.4,-2 5.2,-3.2 11.2,-6.8 17.3,-6.8 2.6,0 5.1,0.7 7.4,2 l 0.3,-0.1 0.9,0.7 c 2.2,1.6 4.9,2.5 7.6,2.5 0.3,0 0.6,0 1,0 l 2.4,-0.2 -0.1,2.4 c -0.1,2.6 -1,5.4 -2.7,8.5 v 0 0 c -2.5,4 -6.3,7 -11.4,9.2 -0.8,0.3 -1.6,0.6 -2.5,0.9 -2.6,0.8 -5.7,3.2 -5.4,6.2 l 0.5,1.2 c 0,0 0,0 0,0.1 l 0.6,1.3 -0.9,1.1 c -0.8,0.9 -1.3,2.4 -1.4,4 0,0.5 0,1.1 0,1.6 0,1.3 0,2.6 -0.3,4 -0.5,2.4 -1.8,4.4 -3.8,5.6 -1.3,0.7 -2.8,1.1 -4.1,1.1 z M 88.4,53.9 Z"
   id="path213" />

			
				<linearGradient
   id="linearGradient962"
   gradientUnits="userSpaceOnUse"
   x1="22.458"
   y1="67.600197"
   x2="103.196"
   y2="67.600197">
				<stop
   offset="0.1316"
   style="stop-color:#7CEEF3"
   id="stop950" />

				<stop
   offset="0.2836"
   style="stop-color:#A3B7BB"
   id="stop952" />

				<stop
   offset="0.4497"
   style="stop-color:#C88285"
   id="stop954" />

				<stop
   offset="0.5935"
   style="stop-color:#E45B5E"
   id="stop956" />

				<stop
   offset="0.7077"
   style="stop-color:#F54446"
   id="stop958" />

				<stop
   offset="0.778"
   style="stop-color:#FB3B3D"
   id="stop960" />

			</linearGradient>

			<path
   style="fill:url(#SVGID_00000015339069418137621360000002670847897742480054_)"
   d="m 93.2,69.8 c 0,0 -0.1,0 -0.2,0 -9,-5.8 -18.7,1.9 -26.7,6.4 -0.6,0.3 -1.1,0.7 -1.7,1 -12.9,8 -31.1,5.8 -37.3,-9.4 -5.9,-16.6 6.1,-36.4 22,-42.3 8.8,-3.5 19.3,-3.1 27.5,1.9 2.6,1.4 4.9,3.3 6.9,5.5 2.7,3.2 2.5,3.5 1.2,2.2 0.3,0.4 3.4,4.7 2.9,9.6 -0.3,3 -1.5,4.4 -2.5,5 0.6,2.2 1.5,4.3 3.2,6 0.3,1.3 -4.5,-1.5 -4.7,-2.1 -2.1,-1.9 -1.9,-4.9 -3.3,-7.2 -1,-1.6 -3.5,-2.5 -5.3,-1.8 -1.6,0.6 -2.7,2.3 -2.9,4 -0.3,2.7 1.5,4.8 3.6,6.2 1,0.6 2,1 3.2,1.3 0.4,0.1 1,0.2 1.4,0.4 0,0 0,0 0.1,0.1 2,0.1 4,0.7 5.8,1.5 2.4,1.1 4.7,2.5 7.1,3.7 1.9,0.9 3.9,1.5 6,1.6 C 97.9,61 96.3,58.4 95.6,54.9 94.8,49.8 95.4,44.5 93.4,39.6 89.3,27.6 77,20.1 64.6,19.9 47.6,19.4 31.1,30.7 25.2,46.6 18.6,62.1 24,83 41.3,88.6 c 5.6,1.8 11.6,1.9 17.3,0.4 6.3,-1.7 12,-5.1 17.9,-7.6 1.3,-0.6 2.6,-1.1 4,-1.5 0.7,-0.2 1.4,-0.5 2.1,-0.7 0.4,-0.1 1.8,-0.7 2.1,-0.6 0.1,0 0.2,0.2 0.1,0.3 -1.2,0.4 -2.4,0.8 -3.5,1.2 -2.3,1 -4.5,2.1 -6.8,3.3 -2.1,1.1 -4.2,2.3 -6,3.8 -2.2,1.8 -4.1,4.2 -4.8,7 -0.4,1.6 -0.1,3.1 -0.2,4.7 0,0.1 -0.2,0 -0.2,0 1.5,1.4 2.3,2.7 3.1,4.6 0.7,1.8 1.3,3.7 2,5.5 0.7,1.8 1.4,4 2.8,5.5 0.2,0.2 0.3,0.3 0.6,0.5 1.6,1 3.6,0.6 5.1,-0.3 1.5,-0.9 2.5,-2.4 2.8,-4.2 0.3,-1.8 0.2,-3.5 0.2,-5.3 0.1,-1.9 0.7,-3.9 1.9,-5.4 0,0 0,0 0,0 -0.2,0 -0.4,-0.1 -0.5,-0.7 -1.4,-4.6 2.5,-8.4 6.6,-9.7 0.8,-0.2 1.5,-0.5 2.3,-0.8 4.2,-1.7 7.9,-4.3 10.4,-8.3 1.7,-3 2.4,-5.4 2.5,-7.5 -3.4,0.2 -7.1,-0.9 -9.9,-3 z"
   id="path228" />

			
				<linearGradient
   id="SVGID_00000152245037723125762380000004542451441421400194_"
   gradientUnits="userSpaceOnUse"
   x1="42.229198"
   y1="59.2034"
   x2="105.3902"
   y2="59.2034">
				<stop
   offset="0.1316"
   style="stop-color:#F75AC3"
   id="stop230" />

				<stop
   offset="0.2129"
   style="stop-color:#F756B3"
   id="stop232" />

				<stop
   offset="0.3723"
   style="stop-color:#F94C88"
   id="stop234" />

				<stop
   offset="0.5924"
   style="stop-color:#FB3D45"
   id="stop236" />

				<stop
   offset="0.6163"
   style="stop-color:#FB3B3D"
   id="stop238" />

			</linearGradient>

			
			
				<linearGradient
   id="linearGradient981"
   gradientUnits="userSpaceOnUse"
   x1="44.420898"
   y1="59.2034"
   x2="103.2002"
   y2="59.2034">
				<stop
   offset="0.1316"
   style="stop-color:#F75AC3"
   id="stop971" />

				<stop
   offset="0.2129"
   style="stop-color:#F756B3"
   id="stop973" />

				<stop
   offset="0.3723"
   style="stop-color:#F94C88"
   id="stop975" />

				<stop
   offset="0.5924"
   style="stop-color:#FB3D45"
   id="stop977" />

				<stop
   offset="0.6163"
   style="stop-color:#FB3B3D"
   id="stop979" />

			</linearGradient>

			<path
   style="fill:url(#SVGID_00000120530267892931220970000008279791835050958002_)"
   d="M 103.2,72.7 C 99.7,73 96,71.9 93.2,69.8 93.7,69.7 92.2,68.6 91.6,68.2 85.6,64.5 78.5,67.1 73,70.5 62.9,76.4 47.7,71 44.8,59.3 c -0.9,-4.4 -0.1,-9.4 2.6,-13.1 1.7,-2 4.2,0 2.8,2.1 -6.3,8.5 2,18.4 11.5,17.6 7.5,-0.2 9.9,-6.5 16.1,-8.5 0.9,-0.4 1.9,-0.3 2.9,-0.5 0.3,-0.1 0.1,-0.3 -0.1,-0.4 2,0.1 4,0.7 5.8,1.5 2.4,1.1 4.7,2.5 7.1,3.7 1.9,0.9 3.9,1.5 6,1.6 1.9,3 3.8,5.7 3.7,9.4 z"
   id="path254" />

			
				<linearGradient
   id="linearGradient998"
   gradientUnits="userSpaceOnUse"
   x1="29.787399"
   y1="48.369801"
   x2="87.765198"
   y2="48.369801">
				<stop
   offset="0.1316"
   style="stop-color:#FB60C9"
   id="stop984" />

				<stop
   offset="0.2024"
   style="stop-color:#FB5BB6"
   id="stop986" />

				<stop
   offset="0.3823"
   style="stop-color:#FB508B"
   id="stop988" />

				<stop
   offset="0.5566"
   style="stop-color:#FB4769"
   id="stop990" />

				<stop
   offset="0.7216"
   style="stop-color:#FB4051"
   id="stop992" />

				<stop
   offset="0.8735"
   style="stop-color:#FB3C42"
   id="stop994" />

				<stop
   offset="1"
   style="stop-color:#FB3B3D"
   id="stop996" />

			</linearGradient>

			<path
   style="fill:url(#SVGID_00000023987134371729370040000008535650974114864025_)"
   d="m 87.7,44.7 c -0.3,3 -1.5,4.4 -2.5,5 -0.6,-2.1 -1,-4.3 -1.7,-6.3 C 81,36.2 74.1,30.7 66.6,29.6 55.5,27.7 44.3,34.7 39,44.3 c -4.4,7.6 -5.1,17 -1,24.8 1.1,2.7 -2.6,4.5 -4.4,2.5 C 31.3,68.8 30.4,65 30,61.5 27.3,33.4 61.3,11.3 83,33 c 0.7,0.9 1.4,1.6 1.8,2.1 0,0 0,0 0,0 0.2,0.2 3.4,4.6 2.9,9.6 z"
   id="path271" />

		</g>

	</g>

	<path
   class="st11"
   d="m 111.4,69.5 c -0.7,-6.2 -6,-10.2 -8,-15.8 -1.1,-3.6 -0.7,-7.5 -1.5,-11.1 C 100.9,37 98.4,31.7 94.8,27.4 83.2,13.6 63.1,12.1 47,17.8 37.3,20.9 29,27.9 23.7,36.5 c -7.1,11.6 -9.4,26.6 -5.2,39.6 1,3.2 2.7,6.2 4.8,8.9 2,2.6 4.5,4.8 7.2,6.7 2.8,1.8 5.8,3.3 8.9,4.3 3.2,1 6.5,1.6 9.9,1.8 3.3,0.1 6.7,-0.7 9.9,0.6 1.9,0.8 3.2,2.2 4.2,4 1,1.8 1.6,3.8 2.2,5.7 0.6,1.9 1.2,3.9 2.2,5.7 1,1.7 2.3,3.1 4.2,3.7 0.5,0.2 1,0.3 1.5,0.4 2.5,0.4 5,-0.7 6.7,-2.5 0.9,-0.9 1.5,-2 1.9,-3.2 0.4,-1.2 0.2,-2.4 0.2,-3.7 0,-3.7 0.7,-7.1 3.9,-9.4 4.3,-3 9.7,-3.7 14,-6.7 7.5,-4.8 12.8,-13.9 11.2,-22.9 z m -2.3,5.6 c -0.9,6.2 -4.9,11.6 -10,15 -3.8,2.7 -8.4,3.6 -12.5,5.7 -1.1,0.6 -2.1,1.3 -3.1,2.2 -0.9,0.9 -1.9,1.8 -2.5,2.9 -0.7,1.3 -1,2.7 -1.1,4.2 -0.1,1.8 0.1,3.6 -0.2,5.3 -0.3,1.7 -1.3,3.2 -2.8,4.2 -1.5,0.9 -3.5,1.2 -5.1,0.3 -0.2,-0.1 -0.4,-0.3 -0.6,-0.5 -1.4,-1.5 -2.1,-3.6 -2.8,-5.5 -0.7,-1.8 -1.3,-3.7 -2,-5.5 -0.4,-1 -0.8,-1.9 -1.3,-2.8 -0.2,-0.5 -0.5,-0.9 -0.8,-1.3 -0.8,-1.1 -2.1,-2.1 -3.3,-2.7 -0.8,-0.4 -1.6,-0.7 -2.5,-0.9 -1.8,-0.4 -3.6,-0.5 -5.4,-0.5 -1.6,0 -3.2,0.1 -4.8,0 C 45.4,95.1 42.6,94.6 39.8,93.7 19.6,87.2 15.2,65.7 21.3,47.3 24.8,36.8 32.4,27.5 42.2,22.4 c 15.2,-7.3 35.6,-8 48.5,4.2 7.6,7.2 9.1,15.4 9.8,25.3 1.5,9.1 10.4,12.5 8.6,23.2 z"
   id="path277"
   style="fill:#ffffff" />

</g>
  </g>
</svg>
