<?xml version="1.0" encoding="UTF-8" standalone="no"?>
<svg
   xmlns:dc="http://purl.org/dc/elements/1.1/"
   xmlns:cc="http://creativecommons.org/ns#"
   xmlns:rdf="http://www.w3.org/1999/02/22-rdf-syntax-ns#"
   xmlns:svg="http://www.w3.org/2000/svg"
   xmlns="http://www.w3.org/2000/svg"
   xmlns:sodipodi="http://sodipodi.sourceforge.net/DTD/sodipodi-0.dtd"
   xmlns:inkscape="http://www.inkscape.org/namespaces/inkscape"
   version="1.1"
   viewBox="0 0 128 128"
   xml:space="preserve"
   id="svg30"
   sodipodi:docname="linkedin.svg"
   inkscape:version="0.92.3 (2405546, 2018-03-11)"
   width="128"
   height="128"><metadata
     id="metadata36"><rdf:RDF><cc:Work
         rdf:about=""><dc:format>image/svg+xml</dc:format><dc:type
           rdf:resource="http://purl.org/dc/dcmitype/StillImage" /><dc:title /></cc:Work></rdf:RDF></metadata><defs
     id="defs34" /><sodipodi:namedview
     pagecolor="#ffffff"
     bordercolor="#666666"
     borderopacity="1"
     objecttolerance="10"
     gridtolerance="10"
     guidetolerance="10"
     inkscape:pageopacity="0"
     inkscape:pageshadow="2"
     inkscape:window-width="3000"
     inkscape:window-height="1875"
     id="namedview32"
     showgrid="false"
     inkscape:zoom="5.7747053"
     inkscape:cx="179.97006"
     inkscape:cy="76.624717"
     inkscape:window-x="-13"
     inkscape:window-y="-13"
     inkscape:window-maximized="1"
     inkscape:current-layer="svg30"
     fit-margin-top="0"
     fit-margin-left="0"
     fit-margin-right="0"
     fit-margin-bottom="0" /><g
     id="g836"><g
       transform="matrix(4.1707261,0,0,4.1707397,-36.097426,-36.097752)"
       id="Icons_23_"
       style="fill:#0077b5;fill-opacity:1"><g
         id="g26"
         style="fill:#0077b5;fill-opacity:1"><path
           d="m 23.99505,8.655 c -8.4701,0 -15.3401,6.87 -15.3401,15.3399 0,8.4801 6.87,15.3501 15.3401,15.3501 8.48,0 15.35,-6.87 15.35,-15.3501 0,-8.4699 -6.87,-15.3399 -15.35,-15.3399 z m -4.3501,23.0299 c 0,0.18 -0.0499,0.23 -0.2299,0.23 h -2.87 c -0.18,0 -0.24,-0.05 -0.23,-0.23 V 21.535 c -0.01,-0.1801 0.06,-0.2401 0.23,-0.2301 h 2.87 c 0.19,-0.01 0.2299,0.05 0.2299,0.2301 z m -1.6599,-11.75 c -1.06,0.01 -1.93,-0.87 -1.93,-1.93 0,-1 0.7799,-1.9199 1.92,-1.9299 1.08,0 1.94,0.81 1.94,1.9299 0,1.1 -0.84,1.92 -1.93,1.93 z m 13.6599,11.98 h -2.81 c -0.2299,0 -0.2399,-0.0099 -0.2399,-0.25 V 26.535 c 0,-0.4901 -0.0101,-0.9701 -0.15,-1.44 -0.22,-0.7301 -0.7,-1.08 -1.46,-1.1001 -0.54,-0.01 -1.05,0.0901 -1.44,0.51 -0.3,0.3301 -0.44,0.74 -0.49,1.17 -0.04,0.39 -0.07,0.7901 -0.07,1.19 -0.01,1.6101 -0.01,3.2201 0,4.83 0,0.17 -0.05,0.22 -0.22,0.22 h -2.89 c -0.17,0 -0.23,-0.05 -0.23,-0.22 0.01,-3.39 0.01,-6.78 0,-10.1699 0,-0.18 0.06,-0.2201 0.23,-0.2201 h 2.76 c 0.18,0 0.23,0.06 0.23,0.2301 -0.01,0.37 0,0.75 0,1.12 0.52,-0.76 1.22,-1.26 2.1,-1.4701 1.02,-0.25 2.03,-0.1799 2.99,0.24 0.93,0.4001 1.43,1.1601 1.69,2.1001 0.18,0.61 0.26,1.24 0.27,1.88 0.01,2.07 0.02,4.1499 0.03,6.2199 0,0.29 0,0.29 -0.3001,0.29 z"
           style="fill:#0077b5;fill-opacity:1"
           id="path24"
           inkscape:connector-curvature="0" /></g></g><path
       inkscape:connector-curvature="0"
       id="path824"
       d="m 32.180937,96.633004 c -0.04532,-0.119053 -0.06236,-9.996181 -0.03786,-21.949172 l 0.04454,-21.732711 6.655497,-0.04538 c 5.20941,-0.03552 6.68564,0.0021 6.794232,0.173169 0.159643,0.251485 0.197974,43.082169 0.03893,43.496639 -0.09333,0.2432 -0.851273,0.273917 -6.759026,0.273917 -5.163738,0 -6.672369,-0.04848 -6.736317,-0.216462 z"
       style="fill:#ffffff;fill-opacity:1;stroke-width:0.17316902" /><path
       inkscape:connector-curvature="0"
       id="path826"
       d="m 54.347353,96.635042 c -0.04575,-0.120174 -0.06314,-9.998219 -0.03864,-21.95121 l 0.04454,-21.732711 6.407253,-0.04573 c 5.869805,-0.04189 6.425411,-0.02096 6.623715,0.249559 0.14907,0.203355 0.218169,1.080199 0.221947,2.816432 l 0.0055,2.521146 0.3802,-0.519507 c 3.243294,-4.431652 8.557872,-6.610015 14.934286,-6.121334 3.188112,0.244333 6.969772,1.674306 8.877128,3.356741 1.917805,1.691652 3.331751,4.248631 4.180014,7.559129 0.904329,3.529311 0.932701,4.114213 0.951824,19.622294 l 0.01772,14.373028 h -6.840175 -6.840176 l -0.09569,-13.334014 c -0.08691,-12.110869 -0.12396,-13.428458 -0.403874,-14.363599 -1.14664,-3.830728 -3.172641,-5.260382 -7.193161,-5.075879 -2.29841,0.105476 -3.464037,0.521233 -4.745881,1.692766 -0.96764,0.884368 -1.852353,2.339362 -2.186558,3.595999 -0.470509,1.769153 -0.574269,4.146672 -0.678026,15.536065 l -0.108852,11.948662 -6.714952,0.04533 c -5.27936,0.03564 -6.732736,-0.0014 -6.798136,-0.17317 z"
       style="fill:#ffffff;fill-opacity:1;stroke-width:0.17316902" /><path
       inkscape:connector-curvature="0"
       id="path828"
       d="m 37.036357,46.732443 c -3.939249,-0.977675 -6.635631,-5.012979 -5.973342,-8.939477 0.402681,-2.387361 2.130763,-4.849157 4.114215,-5.861039 2.338652,-1.193091 5.388711,-1.15389 7.690391,0.09884 1.194565,0.650164 2.654639,2.25527 3.29366,3.620827 0.456073,0.974605 0.553618,1.418943 0.621649,2.831739 0.123872,2.572446 -0.432108,4.189643 -2.048327,5.958045 -1.8495,2.023647 -4.999036,2.960977 -7.698246,2.291065 z"
       style="fill:#ffffff;fill-opacity:1;stroke-width:0.17316902" /></g></svg>